<svg width="47" height="32" viewBox="0 0 47 32" fill="none" xmlns="http://www.w3.org/2000/svg">
<path d="M15.7461 0.5C18.1049 0.5 20.4072 1.22578 22.3398 2.57812C24.2721 3.93035 25.7417 5.84395 26.5498 8.05957C27.3579 10.2755 27.4657 12.6869 26.8574 14.9658C26.2491 17.2447 24.9543 19.2814 23.1494 20.7998L22.542 21.3115L23.2646 21.6387C26.2379 22.9842 28.797 25.1013 30.6748 27.7705L30.6816 27.7803L30.6895 27.79C30.8353 27.9768 30.9415 28.1918 31.002 28.4209C31.0624 28.6501 31.0758 28.8895 31.041 29.124C31.0062 29.3585 30.9241 29.5834 30.7998 29.7852C30.6754 29.987 30.5112 30.1614 30.3174 30.2979C30.1235 30.4343 29.9038 30.53 29.6719 30.5791C29.44 30.6281 29.2002 30.6303 28.9678 30.584C28.7354 30.5377 28.5147 30.4437 28.3193 30.3096C28.124 30.1754 27.9577 30.0029 27.8311 29.8027L27.8252 29.793L27.8184 29.7832L27.5576 29.4238C26.2302 27.6492 24.5186 26.1947 22.5488 25.1709C20.4476 24.0788 18.1141 23.5088 15.7461 23.5088C13.3781 23.5088 11.0445 24.0788 8.94336 25.1709C6.84232 26.263 5.03546 27.8452 3.6748 29.7832L3.67383 29.7842C3.51387 30.0139 3.30007 30.2018 3.05176 30.3311C2.80357 30.4602 2.52781 30.5271 2.24805 30.5264H2.24414C1.88528 30.5274 1.53512 30.4157 1.24316 30.207L1.24121 30.2061L1.10449 30.0986C0.80073 29.8356 0.594742 29.4746 0.525391 29.0752C0.446175 28.6187 0.551109 28.1487 0.817383 27.7695C2.69518 25.1006 5.25445 22.9841 8.22754 21.6387L8.9502 21.3115L8.34277 20.7998C6.53794 19.2814 5.24308 17.2447 4.63477 14.9658C4.02648 12.6869 4.13426 10.2755 4.94238 8.05957C5.75056 5.84372 7.22081 3.93038 9.15332 2.57812C11.0859 1.2258 13.3873 0.500022 15.7461 0.5ZM27.9111 0.947266H27.9121L27.9209 0.945312C28.931 0.657765 29.9762 0.51195 31.0264 0.513672H31.0293C33.3893 0.506899 35.6941 1.22808 37.6299 2.57812C39.5658 3.92827 41.0385 5.84237 41.8477 8.05957C42.6567 10.2767 42.7626 12.6891 42.1514 14.9688C41.5401 17.2484 40.2415 19.2849 38.4316 20.7998L37.8213 21.3105L38.5459 21.6387C41.5192 22.9842 44.0782 25.1013 45.9561 27.7705L45.958 27.7734C46.0914 27.9601 46.1863 28.1718 46.2373 28.3955C46.2883 28.6192 46.2951 28.8511 46.2559 29.0771C46.2166 29.303 46.1322 29.5187 46.0088 29.7119C45.8853 29.9053 45.7247 30.0724 45.5361 30.2031L45.5303 30.207C45.2383 30.4158 44.8882 30.5265 44.5293 30.5254C44.2488 30.5236 43.9724 30.4566 43.7236 30.3271C43.5369 30.2299 43.37 30.0996 43.2295 29.9443L43.0977 29.7812C41.7343 27.8473 39.9271 26.2683 37.8271 25.1777C35.7268 24.087 33.395 23.5163 31.0283 23.5137H31.0273C30.5634 23.5136 30.1182 23.33 29.79 23.002C29.4618 22.6738 29.2773 22.2278 29.2773 21.7637C29.2775 21.2997 29.4619 20.8545 29.79 20.5264C30.1182 20.1983 30.5633 20.0137 31.0273 20.0137C33.1491 20.0137 35.1843 19.1712 36.6846 17.6709C38.1848 16.1706 39.0273 14.1353 39.0273 12.0137C39.0272 9.8922 38.1846 7.85759 36.6846 6.35742C35.1843 4.85713 33.1491 4.01367 31.0273 4.01367C30.2962 4.01239 29.5684 4.11387 28.8652 4.31445L28.8594 4.31641C28.637 4.38271 28.4036 4.40362 28.1729 4.37891C27.9422 4.35418 27.7189 4.28376 27.5156 4.17188C27.3123 4.05994 27.1326 3.9093 26.9883 3.72754C26.844 3.54576 26.7377 3.33669 26.6748 3.11328C26.6119 2.88988 26.5938 2.65612 26.6221 2.42578C26.6504 2.19542 26.7247 1.97303 26.8398 1.77148C26.9549 1.56995 27.109 1.39339 27.293 1.25195C27.4769 1.11059 27.6869 1.00666 27.9111 0.947266ZM17.3066 4.16797C15.7549 3.85935 14.1463 4.01758 12.6846 4.62305C11.2229 5.22852 9.97374 6.25391 9.09473 7.56934C8.21575 8.88482 7.74617 10.4316 7.74609 12.0137C7.74609 14.1353 8.58874 16.1706 10.0889 17.6709C11.5891 19.1712 13.6244 20.0136 15.7461 20.0137C17.3282 20.0137 18.8749 19.5449 20.1904 18.666C21.506 17.787 22.5322 16.537 23.1377 15.0752C23.743 13.6135 23.9014 12.0048 23.5928 10.4531C23.2841 8.90145 22.522 7.47617 21.4033 6.35742C20.2845 5.2386 18.8585 4.47665 17.3066 4.16797Z" fill="#4CAF4F" stroke="#4CAF4F"/>
</svg>
