<svg width="42" height="33" viewBox="0 0 42 33" fill="none" xmlns="http://www.w3.org/2000/svg">
<path d="M6.75 0.5H35.25C36.9076 0.5 38.4968 1.15895 39.6689 2.33105C40.841 3.50316 41.5 5.0924 41.5 6.75V26.25C41.5 27.9076 40.841 29.4968 39.6689 30.6689C38.4968 31.841 36.9076 32.5 35.25 32.5H6.75C5.0924 32.5 3.50316 31.841 2.33105 30.6689C1.15895 29.4968 0.5 27.9076 0.5 26.25V6.75C0.5 5.0924 1.15895 3.50316 2.33105 2.33105C3.50316 1.15895 5.0924 0.5 6.75 0.5ZM2.5 26.25C2.5 27.3772 2.94809 28.4579 3.74512 29.2549C4.54215 30.0519 5.62283 30.5 6.75 30.5H35.25C36.3772 30.5 37.4579 30.0519 38.2549 29.2549C39.0519 28.4579 39.5 27.3772 39.5 26.25V11.5H2.5V26.25ZM28.5 21.5H33C33.2652 21.5 33.5195 21.6054 33.707 21.793C33.8946 21.9805 34 22.2348 34 22.5C34 22.7652 33.8946 23.0195 33.707 23.207C33.5195 23.3946 33.2652 23.5 33 23.5H28.5C28.2348 23.5 27.9805 23.3946 27.793 23.207C27.6054 23.0195 27.5 22.7652 27.5 22.5C27.5 22.2348 27.6054 21.9805 27.793 21.793C27.9805 21.6054 28.2348 21.5 28.5 21.5ZM6.75 2.5C5.62283 2.5 4.54215 2.94809 3.74512 3.74512C2.94809 4.54215 2.5 5.62283 2.5 6.75V9.5H39.5V6.75C39.5 5.62283 39.0519 4.54215 38.2549 3.74512C37.4579 2.94809 36.3772 2.5 35.25 2.5H6.75Z" fill="#4CAF4F" stroke="#4CAF4F"/>
</svg>
